<svg id="Capa_1" enable-background="new 0 0 512 512" height="512" viewBox="0 0 512 512" width="512" xmlns="http://www.w3.org/2000/svg"><g><path d="m166 384.58v-127.58c0-8.284-6.716-15-15-15s-15 6.716-15 15v127.58c-17.459 6.192-30 22.865-30 42.42s12.541 36.228 30 42.42v27.58c0 8.284 6.716 15 15 15s15-6.716 15-15v-27.58c17.459-6.192 30-22.865 30-42.42s-12.541-36.228-30-42.42zm-15 57.42c-8.271 0-15-6.729-15-15s6.729-15 15-15 15 6.729 15 15-6.729 15-15 15z"/><path d="m271 284.58v-27.58c0-8.284-6.716-15-15-15s-15 6.716-15 15v27.58c-17.459 6.192-30 22.865-30 42.42s12.541 36.228 30 42.42v127.58c0 8.284 6.716 15 15 15s15-6.716 15-15v-127.58c17.459-6.192 30-22.865 30-42.42s-12.541-36.228-30-42.42zm-15 57.42c-8.271 0-15-6.729-15-15s6.729-15 15-15 15 6.729 15 15-6.729 15-15 15z"/><path d="m61 284.58v-27.58c0-8.284-6.716-15-15-15s-15 6.716-15 15v27.58c-17.459 6.192-30 22.865-30 42.42s12.541 36.228 30 42.42v127.58c0 8.284 6.716 15 15 15s15-6.716 15-15v-127.58c17.459-6.192 30-22.865 30-42.42s-12.541-36.228-30-42.42zm-15 57.42c-8.271 0-15-6.729-15-15s6.729-15 15-15 15 6.729 15 15-6.729 15-15 15z"/><path d="m376 384.58v-127.58c0-8.284-6.716-15-15-15s-15 6.716-15 15v127.58c-17.459 6.192-30 22.865-30 42.42s12.541 36.228 30 42.42v27.58c0 8.284 6.716 15 15 15s15-6.716 15-15v-27.58c17.459-6.192 30-22.865 30-42.42s-12.541-36.228-30-42.42zm-15 57.42c-8.271 0-15-6.729-15-15s6.729-15 15-15 15 6.729 15 15-6.729 15-15 15z"/><path d="m481 284.58v-27.58c0-8.284-6.716-15-15-15s-15 6.716-15 15v27.58c-17.459 6.192-30 22.865-30 42.42s12.541 36.228 30 42.42v127.58c0 8.284 6.716 15 15 15s15-6.716 15-15v-127.58c17.459-6.192 30-22.865 30-42.42s-12.541-36.228-30-42.42zm-15 57.42c-8.271 0-15-6.729-15-15s6.729-15 15-15 15 6.729 15 15-6.729 15-15 15z"/><path d="m338.5 210h45c8.284 0 15-6.716 15-15s-6.716-15-15-15h-45c-8.284 0-15 6.716-15 15s6.716 15 15 15z"/><path d="m443.5 210h45c8.284 0 15-6.716 15-15s-6.716-15-15-15h-45c-8.284 0-15 6.716-15 15s6.716 15 15 15z"/><path d="m23.5 210h45c8.284 0 15-6.716 15-15s-6.716-15-15-15h-45c-8.284 0-15 6.716-15 15s6.716 15 15 15z"/><path d="m233.5 210h45c8.284 0 15-6.716 15-15s-6.716-15-15-15h-45c-8.284 0-15 6.716-15 15s6.716 15 15 15z"/><path d="m128.5 210h45c8.284 0 15-6.716 15-15s-6.716-15-15-15h-45c-8.284 0-15 6.716-15 15s6.716 15 15 15z"/><path d="m338.5 150h45c8.284 0 15-6.716 15-15s-6.716-15-15-15h-45c-8.284 0-15 6.716-15 15s6.716 15 15 15z"/><path d="m443.5 150h45c8.284 0 15-6.716 15-15s-6.716-15-15-15h-45c-8.284 0-15 6.716-15 15s6.716 15 15 15z"/><path d="m23.5 150h45c8.284 0 15-6.716 15-15s-6.716-15-15-15h-45c-8.284 0-15 6.716-15 15s6.716 15 15 15z"/><path d="m233.5 150h45c8.284 0 15-6.716 15-15s-6.716-15-15-15h-45c-8.284 0-15 6.716-15 15s6.716 15 15 15z"/><path d="m128.5 150h45c8.284 0 15-6.716 15-15s-6.716-15-15-15h-45c-8.284 0-15 6.716-15 15s6.716 15 15 15z"/><path d="m338.5 90h45c8.284 0 15-6.716 15-15s-6.716-15-15-15h-45c-8.284 0-15 6.716-15 15s6.716 15 15 15z"/><path d="m23.5 90h45c8.284 0 15-6.716 15-15s-6.716-15-15-15h-45c-8.284 0-15 6.716-15 15s6.716 15 15 15z"/><path d="m233.5 90h45c8.284 0 15-6.716 15-15s-6.716-15-15-15h-45c-8.284 0-15 6.716-15 15s6.716 15 15 15z"/><path d="m233.5 30h45c8.284 0 15-6.716 15-15s-6.716-15-15-15h-45c-8.284 0-15 6.716-15 15s6.716 15 15 15z"/></g></svg>